<svg xmlns="http://www.w3.org/2000/svg" viewBox="0 0 1200 820" role="img" aria-label="Linko engineering capabilities"><defs><linearGradient id="navy" x1="0" y1="0" x2="1" y2="1"><stop stop-color="#071525"/><stop offset="1" stop-color="#153d5f"/></linearGradient><linearGradient id="blue" x1="0" y1="0" x2="1" y2="1"><stop stop-color="#1d4ed8"/><stop offset="1" stop-color="#60a5fa"/></linearGradient></defs><rect width="1200" height="820" fill="#f8fbfd"/><g font-family="Arial,sans-serif"><text x="60" y="70" font-size="38" font-weight="700" fill="#071525">Connected Engineering Capabilities</text><text x="60" y="105" font-size="18" fill="#66788a">Reusable, traceable workflows across drawings, calculations, applications, reporting, and delivery.</text></g><g transform="translate(55 145)"><g><rect x="0" y="0" width="330" height="180" rx="24" fill="url(#navy)"/><path d="M35 135h250M55 110h210M80 84h160M110 58h100" stroke="#6ee7d8" stroke-width="3" opacity=".8"/><text x="28" y="156" fill="#fff" font-family="Arial" font-size="22" font-weight="700">Intelligent Drawings</text></g><g transform="translate(370 0)"><rect width="330" height="180" rx="24" fill="url(#navy)"/><circle cx="95" cy="85" r="42" fill="none" stroke="#6ee7d8" stroke-width="8"/><path d="M95 43v84M53 85h84" stroke="#60a5fa" stroke-width="8"/><text x="28" y="156" fill="#fff" font-family="Arial" font-size="22" font-weight="700">Validated Calculations</text></g><g transform="translate(740 0)"><rect width="330" height="180" rx="24" fill="url(#navy)"/><rect x="36" y="38" width="258" height="76" rx="12" fill="#0d2944" stroke="#6ee7d8"/><path d="M64 95l45-30 34 22 46-39 68 46" fill="none" stroke="#60a5fa" stroke-width="4"/><text x="28" y="156" fill="#fff" font-family="Arial" font-size="22" font-weight="700">Interactive Applications</text></g><g transform="translate(0 220)"><rect width="330" height="180" rx="24" fill="url(#navy)"/><g fill="none" stroke="#60a5fa" stroke-width="4"><rect x="45" y="44" width="58" height="58" rx="12"/><rect x="136" y="44" width="58" height="58" rx="12"/><rect x="227" y="44" width="58" height="58" rx="12"/><path d="M103 73h33M194 73h33"/></g><text x="28" y="156" fill="#fff" font-family="Arial" font-size="22" font-weight="700">Reusable Engineering Engines</text></g><g transform="translate(370 220)"><rect width="330" height="180" rx="24" fill="url(#navy)"/><path d="M58 118h214V42H58z" fill="#f8fafc"/><path d="M84 62h158M84 82h130M84 102h145" stroke="#8ba0b8" stroke-width="5"/><text x="28" y="156" fill="#fff" font-family="Arial" font-size="22" font-weight="700">Professional Reporting</text></g><g transform="translate(740 220)"><rect width="330" height="180" rx="24" fill="url(#navy)"/><path d="M165 36l64 28v42c0 40-26 63-64 76-38-13-64-36-64-76V64z" fill="url(#blue)"/><path d="M132 105l23 23 49-55" fill="none" stroke="#fff" stroke-width="9"/><text x="28" y="156" fill="#fff" font-family="Arial" font-size="22" font-weight="700">Secure and Traceable</text></g><g transform="translate(0 440)"><rect width="330" height="180" rx="24" fill="url(#navy)"/><path d="M75 104c-30 0-35-42-8-52 7-30 53-39 73-12 25-18 60 2 59 30 31 0 39 44 8 51H75z" fill="none" stroke="#6ee7d8" stroke-width="7"/><text x="28" y="156" fill="#fff" font-family="Arial" font-size="22" font-weight="700">Cloud-Ready Platform</text></g><g transform="translate(370 440)"><rect width="330" height="180" rx="24" fill="url(#navy)"/><g fill="#f8fafc"><rect x="54" y="50" width="65" height="75" rx="6"/><rect x="132" y="40" width="65" height="85" rx="6"/><rect x="210" y="56" width="65" height="69" rx="6"/></g><text x="28" y="156" fill="#fff" font-family="Arial" font-size="22" font-weight="700">Standards-Driven</text></g><g transform="translate(740 440)"><rect width="330" height="180" rx="24" fill="url(#navy)"/><circle cx="165" cy="84" r="48" fill="none" stroke="#6ee7d8" stroke-width="7"/><path d="M140 84l18 18 35-41" fill="none" stroke="#60a5fa" stroke-width="8"/><text x="28" y="156" fill="#fff" font-family="Arial" font-size="22" font-weight="700">AI-Powered Engineering</text></g></g></svg>